<svg xmlns="http://www.w3.org/2000/svg" width="136.5" height="50" viewBox="0 0 136.5 50">
  <g id="Social_Icons" data-name="Social Icons" transform="translate(-50 -2957)">
    <path id="facebook-brands" d="M58,33.152A25,25,0,1,0,29.094,58V40.423H22.743V33.152h6.351V27.611c0-6.3,3.73-9.785,9.443-9.785a38.249,38.249,0,0,1,5.6.491V24.5H40.98c-3.1,0-4.074,1.939-4.074,3.928v4.721H43.84l-1.109,7.271H36.906V58A25.115,25.115,0,0,0,58,33.152Z" transform="translate(42 2949)" fill="#c6d5ff"/>
    <path id="twitter-brands" d="M55.178,60.543c.039.547.039,1.094.039,1.641,0,16.68-12.682,35.9-35.862,35.9A35.593,35.593,0,0,1,0,92.418a26.049,26.049,0,0,0,3.044.156,25.227,25.227,0,0,0,15.648-5.391,12.628,12.628,0,0,1-11.785-8.75,15.88,15.88,0,0,0,2.38.2A13.318,13.318,0,0,0,12.6,78.2,12.616,12.616,0,0,1,2.5,65.816V65.66a12.684,12.684,0,0,0,5.7,1.6,12.644,12.644,0,0,1-3.9-16.875,35.816,35.816,0,0,0,25.989,13.2,14.257,14.257,0,0,1-.312-2.891,12.614,12.614,0,0,1,21.814-8.633,24.8,24.8,0,0,0,8-3.047,12.581,12.581,0,0,1-5.541,6.953A25.248,25.248,0,0,0,61.5,54.02a27.11,27.11,0,0,1-6.322,6.523Z" transform="translate(125 2908.918)" fill="#c6d5ff"/>
  </g>
</svg>
